<?xml version="1.0" standalone="no"?>
<!DOCTYPE svg PUBLIC "-//W3C//DTD SVG 20010904//EN"
 "http://www.w3.org/TR/2001/REC-SVG-20010904/DTD/svg10.dtd">
<svg version="1.0" xmlns="http://www.w3.org/2000/svg"
 width="1216.000000pt" height="1216.000000pt" viewBox="0 0 1216.000000 1216.000000"
 preserveAspectRatio="xMidYMid meet">
<metadata>
Created by potrace 1.14, written by Peter Selinger 2001-2017
</metadata>
<g transform="translate(0.000000,1216.000000) scale(0.100000,-0.100000)"
fill="#000000" stroke="none">
<path d="M6066 12135 c-9 -13 -16 -29 -16 -34 0 -5 -3 -11 -8 -13 -4 -1 -19
-25 -33 -53 -15 -27 -61 -111 -104 -185 -42 -74 -81 -144 -86 -155 -5 -11 -18
-33 -29 -50 -10 -16 -33 -57 -51 -90 -17 -33 -34 -62 -38 -65 -3 -3 -14 -21
-23 -40 -10 -19 -36 -66 -58 -105 -23 -38 -50 -89 -61 -112 -11 -24 -24 -43
-29 -43 -6 0 -10 -9 -10 -20 0 -11 -4 -20 -10 -20 -5 0 -10 -5 -10 -10 0 -11
-210 -387 -241 -432 -11 -15 -19 -34 -19 -42 0 -8 -4 -16 -8 -18 -8 -3 -49
-73 -102 -173 -9 -16 -23 -41 -31 -55 -13 -21 -157 -275 -229 -405 -50 -90
-159 -282 -179 -315 -11 -19 -24 -42 -28 -50 -4 -8 -30 -55 -58 -105 -29 -49
-81 -142 -116 -205 -35 -63 -70 -124 -76 -135 -7 -11 -19 -33 -28 -50 -9 -16
-26 -48 -39 -70 -13 -22 -35 -60 -48 -85 -14 -25 -38 -67 -54 -95 -16 -27 -36
-63 -44 -80 -8 -16 -18 -32 -21 -35 -3 -3 -37 -61 -75 -130 -38 -69 -73 -132
-79 -142 -5 -9 -25 -45 -44 -80 -18 -34 -36 -65 -40 -68 -3 -3 -15 -23 -26
-45 -10 -22 -34 -64 -52 -92 -18 -29 -30 -53 -26 -53 3 0 -1 -8 -9 -17 -8 -10
-32 -49 -53 -88 -34 -64 -93 -169 -116 -205 -5 -8 -23 -42 -40 -75 -17 -33
-35 -61 -40 -63 -5 -2 -9 -7 -9 -12 0 -8 -58 -113 -210 -381 -22 -39 -40 -75
-40 -80 0 -5 -4 -9 -10 -9 -5 0 -10 -4 -10 -9 0 -6 -35 -72 -78 -148 -44 -76
-91 -159 -105 -185 -61 -109 -81 -145 -98 -173 -10 -16 -32 -57 -50 -90 -18
-33 -43 -77 -55 -97 -13 -21 -24 -40 -24 -43 0 -3 -15 -29 -33 -58 -18 -29
-36 -60 -40 -70 -4 -10 -26 -50 -50 -90 -24 -40 -47 -82 -51 -94 -4 -13 -12
-23 -17 -23 -5 0 -9 -4 -9 -10 0 -5 -30 -62 -67 -128 -38 -65 -75 -131 -83
-147 -8 -17 -17 -32 -20 -35 -3 -3 -14 -23 -25 -45 -11 -22 -35 -63 -52 -92
-18 -29 -33 -54 -33 -57 0 -4 -131 -238 -150 -266 -5 -8 -19 -33 -30 -55 -11
-22 -34 -62 -51 -90 -16 -27 -34 -59 -39 -70 -10 -21 -23 -42 -53 -87 -10 -16
-15 -28 -11 -28 4 0 0 -8 -8 -17 -9 -10 -38 -58 -65 -108 -51 -92 -167 -298
-183 -325 -28 -46 -120 -212 -120 -216 0 -2 -12 -23 -26 -46 -15 -23 -37 -62
-49 -87 l-23 -45 65 -60 c36 -34 87 -81 113 -106 26 -25 112 -106 191 -180 78
-74 160 -151 180 -170 20 -19 94 -89 165 -155 150 -141 291 -274 350 -330 23
-22 99 -94 170 -160 70 -66 142 -133 159 -150 18 -16 85 -79 149 -140 65 -60
139 -130 165 -155 40 -38 248 -234 371 -350 20 -19 95 -89 165 -155 70 -66
149 -140 175 -165 50 -47 277 -261 345 -325 67 -62 315 -297 376 -355 32 -30
104 -98 160 -150 57 -52 119 -111 139 -130 20 -19 97 -91 170 -160 73 -69 157
-147 185 -175 29 -27 105 -99 170 -160 64 -60 145 -137 180 -170 35 -33 112
-105 171 -160 59 -55 117 -111 129 -123 13 -13 29 -22 38 -20 13 3 67 52 360
330 33 32 61 58 62 58 1 0 29 26 61 58 33 31 113 107 178 167 65 61 144 135
175 165 32 30 115 109 186 175 70 66 155 146 188 178 34 31 90 85 126 119 37
33 124 115 194 182 71 66 146 137 166 156 82 76 285 268 340 320 32 30 115
109 186 175 70 66 151 143 180 170 29 28 103 97 165 155 62 58 133 125 160
150 72 68 203 192 345 325 70 66 161 152 201 190 41 39 112 106 160 150 47 44
116 109 154 145 37 36 118 112 180 170 62 58 141 133 177 167 36 35 66 63 68
63 1 0 30 26 62 57 33 32 117 112 187 178 70 66 147 139 171 161 l44 42 -26
47 c-14 27 -34 62 -44 79 -10 17 -24 42 -30 56 -5 13 -14 27 -18 30 -4 3 -22
34 -41 70 -45 88 -53 102 -67 118 -7 7 -16 24 -19 38 -3 13 -10 24 -14 24 -4
0 -11 11 -14 24 -3 14 -12 31 -19 38 -13 14 -49 76 -81 143 -11 22 -23 42 -27
45 -3 3 -23 37 -43 75 -21 39 -52 95 -70 125 -17 30 -43 75 -56 100 -14 25
-27 47 -30 50 -3 3 -16 28 -30 55 -13 28 -27 52 -30 55 -7 6 -56 95 -78 140
-9 19 -20 37 -23 40 -3 3 -16 25 -30 50 -13 25 -27 47 -31 48 -5 2 -8 11 -8
20 0 8 -6 23 -14 31 -8 9 -27 40 -42 69 -16 30 -39 70 -51 90 -11 20 -33 60
-48 87 -47 90 -91 165 -103 177 -7 7 -12 15 -12 19 0 4 -17 38 -39 76 -21 37
-49 88 -63 113 -25 45 -50 89 -90 158 -49 86 -78 138 -88 162 -6 13 -14 27
-18 30 -4 3 -16 21 -26 40 -10 19 -35 64 -54 100 -19 36 -43 77 -54 92 -10 14
-18 29 -18 32 0 3 -13 27 -28 53 -16 26 -46 80 -67 118 -21 39 -45 81 -52 95
-8 14 -28 48 -44 75 -17 28 -33 58 -36 68 -3 9 -9 17 -13 17 -5 0 -11 14 -15
30 -4 17 -10 30 -14 30 -4 0 -14 12 -22 28 -41 81 -154 278 -163 284 -6 4 -7
8 -2 8 5 0 4 6 -2 13 -5 6 -22 35 -38 62 -30 54 -52 94 -85 153 -12 20 -33 57
-47 82 -14 25 -34 61 -45 80 -11 19 -30 53 -42 75 -43 77 -135 240 -144 255
-6 8 -22 38 -37 65 -14 28 -35 62 -46 78 -11 15 -16 27 -12 27 4 0 0 8 -8 18
-8 9 -30 46 -49 82 -19 36 -37 67 -40 70 -5 5 -28 46 -112 200 -16 30 -33 60
-37 65 -7 9 -21 34 -86 153 -15 26 -35 61 -45 79 -39 63 -80 138 -85 156 -4 9
-10 17 -15 17 -5 0 -9 6 -9 14 0 7 -9 25 -21 40 -11 14 -17 26 -13 26 4 0 1 8
-7 18 -8 9 -19 26 -25 37 -34 62 -79 143 -103 184 -15 25 -30 53 -34 61 -13
27 -32 57 -46 74 -7 9 -11 16 -7 16 4 0 -9 25 -29 55 -19 31 -35 57 -35 59 0
2 -36 67 -80 144 -44 77 -80 145 -80 151 0 6 -4 11 -9 11 -5 0 -11 8 -14 18
-4 9 -22 44 -42 77 -19 33 -41 71 -47 85 -7 14 -15 27 -18 30 -3 3 -11 16 -17
30 -7 14 -25 48 -41 75 -16 28 -35 61 -43 75 -8 14 -20 33 -28 43 -8 9 -10 17
-5 17 5 0 5 4 -1 8 -5 4 -23 32 -39 62 -16 30 -32 57 -35 60 -4 3 -12 16 -18
30 -7 14 -28 52 -47 85 -20 33 -40 69 -46 80 -5 11 -28 52 -50 90 -21 39 -48
86 -58 105 -10 19 -28 51 -39 70 -11 19 -37 64 -57 100 -20 36 -41 72 -46 80
-6 8 -13 22 -17 30 -4 8 -19 35 -33 61 -37 62 -76 132 -118 209 -19 36 -38 70
-42 75 -8 10 -41 68 -78 138 l-20 37 -16 -25z m24 -2930 c0 -8 5 -15 10 -15 6
0 10 -4 10 -9 0 -11 132 -244 143 -252 5 -3 9 -10 9 -15 1 -13 11 -38 17 -44
6 -5 21 -30 55 -95 12 -22 43 -76 69 -121 26 -45 47 -86 47 -92 0 -7 3 -12 8
-12 4 0 18 -23 31 -50 14 -28 29 -50 34 -50 4 0 6 -4 2 -9 -3 -5 -1 -12 4 -15
5 -3 21 -29 36 -58 37 -70 49 -92 55 -98 3 -3 19 -31 35 -62 17 -32 33 -58 38
-58 4 0 7 -7 7 -16 0 -8 11 -32 25 -52 14 -20 25 -42 25 -49 0 -7 3 -13 8 -13
4 0 15 -17 25 -37 9 -21 21 -45 27 -53 17 -27 100 -172 100 -175 0 -2 24 -45
54 -97 49 -86 153 -270 214 -378 34 -61 47 -85 88 -155 19 -33 37 -68 41 -77
3 -10 9 -18 14 -18 5 0 9 -4 9 -10 0 -5 50 -97 110 -205 61 -107 110 -199 110
-204 0 -6 6 -14 13 -18 6 -4 28 -38 46 -75 19 -38 38 -68 41 -68 4 0 7 -6 7
-13 0 -6 11 -30 25 -52 13 -22 38 -65 55 -95 52 -95 84 -152 144 -257 33 -56
59 -106 59 -111 0 -5 -26 -1 -57 10 -32 10 -74 21 -93 24 -19 3 -43 10 -52 15
-10 5 -18 7 -18 3 0 -3 -7 -1 -15 6 -8 7 -15 10 -15 7 0 -3 -21 0 -47 8 -27 8
-59 16 -73 19 -14 3 -45 10 -70 16 -25 6 -56 13 -70 16 -14 2 -32 7 -40 9 -8
2 -28 7 -45 10 -16 2 -41 7 -55 10 -94 20 -218 42 -295 51 -27 3 -57 8 -65 10
-8 3 -35 8 -60 10 -25 2 -61 7 -80 9 -63 10 -105 15 -175 20 -39 3 -99 8 -135
11 -36 3 -117 7 -181 8 -64 2 -121 6 -128 10 -6 4 -11 2 -11 -4 0 -6 -5 -8
-12 -4 -11 7 -69 7 -160 1 -21 -1 -38 1 -38 6 0 4 -6 5 -12 0 -7 -4 -42 -8
-78 -9 -75 -2 -254 -13 -320 -20 -109 -10 -204 -22 -250 -29 -19 -3 -53 -8
-75 -11 -45 -6 -71 -10 -130 -20 -22 -4 -50 -7 -62 -8 -13 0 -23 -4 -23 -9 0
-4 -3 -6 -8 -3 -4 2 -28 0 -52 -5 -42 -8 -56 -11 -120 -25 -14 -3 -38 -8 -55
-11 -46 -8 -60 -11 -60 -13 0 -1 -11 -4 -24 -6 -14 -2 -51 -11 -83 -20 -32 -8
-63 -12 -68 -9 -6 3 -10 2 -10 -3 0 -5 -12 -12 -27 -15 -56 -10 -87 -18 -97
-24 -5 -4 -22 -8 -36 -10 -14 -1 -51 -11 -82 -21 -32 -11 -58 -16 -58 -11 0
11 140 261 158 282 8 9 12 17 7 17 -4 0 -3 6 3 13 18 21 132 226 132 237 0 5
5 10 10 10 6 0 10 4 10 9 0 5 34 68 75 140 41 71 75 135 75 141 0 5 5 10 10
10 6 0 10 4 10 9 0 5 39 78 87 162 47 85 93 165 100 179 8 14 25 43 37 65 79
137 156 278 156 286 0 4 4 9 8 11 10 4 162 275 162 288 0 6 5 10 11 10 5 0 8
4 4 9 -3 5 -1 12 4 15 5 3 25 34 44 69 19 34 44 79 56 100 11 20 31 54 42 75
12 20 31 55 42 77 12 22 24 42 27 45 3 3 14 21 23 40 10 19 27 51 39 70 11 19
48 85 81 145 34 61 64 112 67 115 3 3 11 16 17 30 7 14 30 57 53 95 22 39 43
78 46 88 4 9 10 17 15 17 5 0 8 3 7 8 -1 4 17 39 40 79 23 39 42 76 42 82 0 6
4 11 9 11 5 0 11 6 13 13 6 23 133 246 141 247 4 0 7 -7 7 -15z m-57 -4488
c10 9 68 10 74 0 2 -4 9 -4 15 -1 13 8 78 11 78 4 0 -3 30 -5 68 -6 75 0 256
-13 287 -19 11 -3 45 -7 75 -9 30 -2 62 -7 70 -10 8 -3 38 -7 65 -10 28 -3 61
-8 75 -10 14 -3 39 -7 55 -10 31 -5 72 -13 115 -21 14 -3 39 -8 55 -11 17 -2
44 -9 60 -14 17 -5 44 -11 60 -14 58 -11 90 -18 105 -23 8 -3 20 -7 25 -8 6
-2 39 -10 75 -20 36 -9 72 -18 80 -20 8 -2 60 -18 115 -35 55 -17 107 -33 115
-35 51 -12 378 -129 470 -168 14 -6 27 -11 30 -12 3 0 15 -6 28 -13 12 -7 22
-10 22 -6 0 3 6 2 13 -3 6 -5 38 -20 70 -33 31 -12 57 -25 57 -29 0 -3 -48
-51 -107 -106 -58 -55 -123 -116 -143 -135 -20 -19 -99 -93 -175 -165 -76 -71
-152 -143 -170 -160 -17 -16 -91 -86 -164 -155 -74 -69 -153 -143 -176 -165
-23 -22 -104 -98 -180 -170 -76 -71 -174 -164 -218 -205 -44 -41 -106 -100
-138 -130 -31 -30 -106 -100 -165 -155 -59 -55 -130 -122 -159 -150 -28 -27
-107 -102 -174 -165 -176 -164 -209 -196 -272 -256 -31 -30 -62 -54 -69 -54
-7 0 -38 24 -69 54 -69 67 -146 139 -297 281 -129 121 -120 113 -324 305 -78
74 -159 151 -180 170 -20 19 -92 87 -160 150 -68 63 -149 140 -181 170 -31 30
-112 107 -180 170 -67 63 -139 131 -159 150 -101 95 -299 281 -330 310 -30 27
-193 181 -383 362 -27 26 -46 51 -43 56 3 5 26 15 51 22 25 7 45 16 45 20 0 4
6 7 13 7 6 0 28 7 47 15 19 9 73 31 120 48 47 18 101 39 120 47 20 8 42 15 50
17 16 3 44 13 75 27 61 26 487 152 586 173 13 3 53 12 89 21 36 9 72 18 80 19
40 8 96 19 105 21 6 2 26 5 45 9 19 3 44 7 55 10 11 2 40 7 65 11 25 4 54 9
65 11 11 2 45 6 75 9 30 4 62 8 70 10 37 9 218 25 361 30 55 2 103 6 107 9 3
3 10 1 17 -4 7 -5 15 -7 18 -3z"/>
</g>
</svg>
