<svg width="21" height="20" viewBox="0 0 21 20" fill="none" xmlns="http://www.w3.org/2000/svg">
<path fill-rule="evenodd" clip-rule="evenodd" d="M11 0L18.5 13.0613L11 20L3.5 13.0613L11 0ZM11 4.82587L7.87003 10.2767C8.80604 10.0054 9.87945 9.80213 11 9.80213C12.1205 9.80213 13.194 10.0054 14.13 10.2767L11 4.82587ZM14.8809 13.1199C14.8263 13.0967 14.7705 13.0735 14.7135 13.0502C13.6841 12.6294 12.3495 12.2352 11 12.2352C9.65054 12.2352 8.31584 12.6294 7.28647 13.0502C7.22952 13.0735 7.17371 13.0967 7.11909 13.1199L11 16.7104L14.8809 13.1199Z" fill="#141829"/>
</svg>
