<svg width="100" height="24" viewBox="0 0 100 24" fill="none" xmlns="http://www.w3.org/2000/svg">
<path fill-rule="evenodd" clip-rule="evenodd" d="M9.12302 0L18.2461 15.6736L9.12302 24L0 15.6736L9.12302 0ZM9.12302 5.79104L5.31572 12.3321C6.45428 12.0065 7.75998 11.7626 9.12302 11.7626C10.4861 11.7626 11.7918 12.0065 12.9303 12.3321L9.12302 5.79104ZM13.8438 15.7439C13.7773 15.7161 13.7094 15.6881 13.6402 15.6602C12.388 15.1553 10.7645 14.6822 9.12302 14.6822C7.48154 14.6822 5.85801 15.1553 4.60588 15.6602C4.53661 15.6881 4.46872 15.7161 4.40228 15.7439L9.12302 20.0525L13.8438 15.7439ZM27.3554 18.1V7.26H23.601V18.1H27.3554ZM23.8184 5.48C24.2399 5.86666 24.7932 6.06 25.4782 6.06C26.1632 6.06 26.7165 5.86666 27.1381 5.48C27.5596 5.08 27.7704 4.58 27.7704 3.98C27.7704 3.40666 27.5596 2.94 27.1381 2.58C26.7165 2.20666 26.1632 2.02 25.4782 2.02C24.7932 2.02 24.2399 2.21333 23.8184 2.6C23.3968 2.98666 23.1861 3.46666 23.1861 4.04C23.1861 4.61333 23.3968 5.09333 23.8184 5.48ZM39.3789 8.28C38.5753 7.48 37.5083 7.08 36.1778 7.08C35.4928 7.08 34.8604 7.2 34.2808 7.44C33.7012 7.66666 33.2006 8 32.7791 8.44V7.26H29.2025V18.1H32.9569V12.86C32.9569 12.0067 33.1479 11.3667 33.5299 10.94C33.9251 10.5133 34.4455 10.3 35.091 10.3C36.2634 10.3 36.8496 11.04 36.8496 12.52V18.1H40.604V11.9C40.604 10.2867 40.1956 9.08 39.3789 8.28ZM49.7585 17.66C49.4424 17.86 49.0538 18.0133 48.5927 18.12C48.1448 18.2267 47.664 18.28 47.1502 18.28C45.7539 18.28 44.6802 17.9333 43.9294 17.24C43.1785 16.5467 42.803 15.5133 42.803 14.14V10.5H41.242V7.66H42.803V4.84H46.5574V7.66H49.0077V10.5H46.5574V14.1C46.5574 14.4867 46.6562 14.7933 46.8538 15.02C47.0646 15.2333 47.3412 15.34 47.6837 15.34C48.1185 15.34 48.5005 15.2267 48.8298 15L49.7585 17.66ZM55.672 7.46C55.066 7.7 54.572 8.06666 54.19 8.56V7.26H50.6135V18.1H54.3679V13.12C54.3679 12.2133 54.5918 11.54 55.0397 11.1C55.5008 10.66 56.1331 10.44 56.9366 10.44C57.1606 10.44 57.4438 10.46 57.7863 10.5V7.08C56.9959 7.08 56.2912 7.20666 55.672 7.46ZM64.021 18.28C62.875 18.28 61.8409 18.04 60.9187 17.56C59.9966 17.08 59.2721 16.4133 58.7451 15.56C58.2314 14.7067 57.9745 13.74 57.9745 12.66C57.9745 11.5933 58.2314 10.6333 58.7451 9.78C59.2721 8.92666 59.99 8.26666 60.899 7.8C61.8211 7.32 62.8618 7.08 64.021 7.08C65.1803 7.08 66.221 7.32 67.1431 7.8C68.0652 8.26666 68.7832 8.92666 69.2969 9.78C69.8107 10.62 70.0676 11.58 70.0676 12.66C70.0676 13.74 69.8107 14.7067 69.2969 15.56C68.7832 16.4133 68.0652 17.08 67.1431 17.56C66.221 18.04 65.1803 18.28 64.021 18.28ZM64.021 15.26C64.6797 15.26 65.2198 15.0333 65.6414 14.58C66.0629 14.1133 66.2737 13.4733 66.2737 12.66C66.2737 11.86 66.0629 11.2333 65.6414 10.78C65.2198 10.3267 64.6797 10.1 64.021 10.1C63.3624 10.1 62.8223 10.3267 62.4007 10.78C61.9792 11.2333 61.7684 11.86 61.7684 12.66C61.7684 13.4733 61.9792 14.1133 62.4007 14.58C62.8223 15.0333 63.3624 15.26 64.021 15.26ZM80.5999 7.78C79.8095 7.31333 78.9269 7.08 77.9521 7.08C76.5426 7.08 75.4887 7.5 74.7905 8.34V7.26H71.214V21.98H74.9683V17.14C75.7061 17.9 76.7006 18.28 77.9521 18.28C78.9269 18.28 79.8095 18.0533 80.5999 17.6C81.4035 17.1333 82.0358 16.48 82.4969 15.64C82.9711 14.7867 83.2082 13.8 83.2082 12.68C83.2082 11.56 82.9711 10.58 82.4969 9.74C82.0358 8.88666 81.4035 8.23333 80.5999 7.78ZM78.782 14.58C78.3605 15.0333 77.8204 15.26 77.1617 15.26C76.503 15.26 75.9629 15.0333 75.5414 14.58C75.1198 14.1133 74.9091 13.48 74.9091 12.68C74.9091 11.88 75.1198 11.2533 75.5414 10.8C75.9629 10.3333 76.503 10.1 77.1617 10.1C77.8204 10.1 78.3605 10.3333 78.782 10.8C79.2036 11.2533 79.4143 11.88 79.4143 12.68C79.4143 13.48 79.2036 14.1133 78.782 14.58ZM86.2377 6.06C85.5527 6.06 84.9994 5.86666 84.5778 5.48C84.1563 5.09333 83.9455 4.61333 83.9455 4.04C83.9455 3.46666 84.1563 2.98666 84.5778 2.6C84.9994 2.21333 85.5527 2.02 86.2377 2.02C86.9227 2.02 87.476 2.20666 87.8975 2.58C88.3191 2.94 88.5298 3.40666 88.5298 3.98C88.5298 4.58 88.3191 5.08 87.8975 5.48C87.476 5.86666 86.9227 6.06 86.2377 6.06ZM98.597 8.32C97.6617 7.49333 96.3049 7.08 94.5265 7.08C93.6702 7.08 92.814 7.19333 91.9577 7.42C91.1146 7.63333 90.3967 7.94 89.8039 8.34L91.0685 10.92C91.4374 10.6267 91.8853 10.4 92.4122 10.24C92.9391 10.0667 93.4595 9.98 93.9732 9.98C95.4223 9.98 96.1798 10.5533 96.2456 11.7H94.1115C92.4912 11.7 91.2925 11.9867 90.5152 12.56C89.738 13.12 89.3494 13.9133 89.3494 14.94C89.3494 15.58 89.5009 16.1533 89.8039 16.66C90.12 17.1533 90.5811 17.5467 91.1871 17.84C91.793 18.1333 92.511 18.28 93.3409 18.28C94.9085 18.28 95.9624 17.7533 96.5025 16.7V18.1H100V12.08C100 10.3867 99.5323 9.13333 98.597 8.32ZM95.5343 15.56C95.2049 15.7733 94.8229 15.88 94.3882 15.88C93.9535 15.88 93.611 15.78 93.3607 15.58C93.1104 15.38 92.9852 15.1133 92.9852 14.78C92.9852 14.0467 93.5319 13.68 94.6253 13.68H96.2456V14.62C96.1007 15.0333 95.8636 15.3467 95.5343 15.56ZM84.3605 7.26H88.1149V18.1H84.3605V7.26Z" fill="white"/>
</svg>